<svg xmlns="http://www.w3.org/2000/svg" xmlns:xlink="http://www.w3.org/1999/xlink" width="100" zoomAndPan="magnify" viewBox="0 0 75 74.999997" height="100" preserveAspectRatio="xMidYMid meet" version="1.0"><defs><clipPath id="5983cf631a"><path d="M 14 2.1875 L 61 2.1875 L 61 72.6875 L 14 72.6875 Z M 14 2.1875 " clip-rule="nonzero"/></clipPath></defs><rect x="-7.5" width="90" fill="#ffffff" y="-7.5" height="89.999996" fill-opacity="1"/><rect x="-7.5" width="90" fill="#ffffff" y="-7.5" height="89.999996" fill-opacity="1"/><g clip-path="url(#5983cf631a)"><path fill="#000000" d="M 38.011719 2.1875 C 23.363281 2.1875 15.054688 10.347656 14.816406 22.160156 L 14.816406 22.75 L 27.75 22.75 L 27.75 22.160156 C 28.035156 16.941406 31.664062 13.578125 37.152344 13.578125 C 42.59375 13.578125 46.21875 16.703125 46.21875 21.117188 C 46.21875 25.527344 44.355469 27.804688 38.203125 31.460938 C 31.617188 35.300781 28.988281 39.574219 29.609375 47.164062 L 29.683594 49.1875 L 42.351562 49.1875 L 42.351562 47.261719 C 42.351562 42.707031 44.117188 40.378906 50.464844 36.726562 C 57.195312 32.789062 60.675781 27.808594 60.675781 20.691406 C 60.675781 9.730469 51.660156 2.1875 38.011719 2.1875 Z M 36.292969 58 C 31.4375 58 28.410156 60.804688 28.410156 65.367188 C 28.410156 69.890625 31.441406 72.6875 36.292969 72.6875 C 41.144531 72.6875 44.136719 69.890625 44.136719 65.367188 C 44.136719 60.804688 41.148438 58 36.292969 58 Z M 36.292969 58 " fill-opacity="1" fill-rule="nonzero"/></g></svg>