<svg xmlns="http://www.w3.org/2000/svg" xmlns:xlink="http://www.w3.org/1999/xlink" width="100" zoomAndPan="magnify" viewBox="0 0 75 74.999997" height="100" preserveAspectRatio="xMidYMid meet" version="1.0"><defs><clipPath id="5b0f203976"><path d="M 15.917969 1.226562 L 60 1.226562 L 60 74.726562 L 15.917969 74.726562 Z M 15.917969 1.226562 " clip-rule="nonzero"/></clipPath><clipPath id="0b6aa42ea5"><path d="M 22.648438 7.5 L 53.699219 7.5 L 53.699219 38.550781 L 22.648438 38.550781 Z M 22.648438 7.5 " clip-rule="nonzero"/></clipPath><clipPath id="5366303549"><path d="M 38.175781 7.5 C 29.601562 7.5 22.648438 14.449219 22.648438 23.023438 C 22.648438 31.597656 29.601562 38.550781 38.175781 38.550781 C 46.75 38.550781 53.699219 31.597656 53.699219 23.023438 C 53.699219 14.449219 46.75 7.5 38.175781 7.5 Z M 38.175781 7.5 " clip-rule="nonzero"/></clipPath><clipPath id="eafbc1efa1"><path d="M 27.507812 8.023438 L 47.757812 8.023438 L 47.757812 38.023438 L 27.507812 38.023438 Z M 27.507812 8.023438 " clip-rule="nonzero"/></clipPath></defs><rect x="-7.5" width="90" fill="#ffffff" y="-7.5" height="89.999996" fill-opacity="1"/><rect x="-7.5" width="90" fill="#ffffff" y="-7.5" height="89.999996" fill-opacity="1"/><g clip-path="url(#5b0f203976)"><path fill="#0b2565" d="M 37.859375 1.53125 C 37.140625 1.53125 36.421875 1.566406 35.707031 1.636719 C 34.992188 1.707031 34.285156 1.8125 33.578125 1.953125 C 32.875 2.09375 32.179688 2.265625 31.492188 2.476562 C 30.804688 2.683594 30.128906 2.925781 29.464844 3.199219 C 28.800781 3.476562 28.152344 3.78125 27.515625 4.121094 C 26.882812 4.460938 26.269531 4.828125 25.671875 5.226562 C 25.074219 5.628906 24.496094 6.054688 23.941406 6.511719 C 23.386719 6.964844 22.855469 7.449219 22.347656 7.957031 C 21.839844 8.464844 21.355469 8.996094 20.902344 9.550781 C 20.445312 10.105469 20.015625 10.683594 19.617188 11.28125 C 19.21875 11.878906 18.851562 12.492188 18.511719 13.128906 C 18.171875 13.761719 17.867188 14.410156 17.589844 15.074219 C 17.316406 15.738281 17.074219 16.414062 16.867188 17.101562 C 16.65625 17.789062 16.484375 18.484375 16.34375 19.1875 C 16.203125 19.894531 16.097656 20.601562 16.027344 21.320312 C 15.957031 22.035156 15.921875 22.75 15.921875 23.46875 C 15.925781 26.96875 16.71875 30.273438 18.308594 33.390625 L 18.292969 33.390625 L 37.859375 74.691406 L 57.425781 33.390625 L 57.410156 33.390625 C 58.996094 30.273438 59.792969 26.96875 59.796875 23.46875 C 59.796875 22.75 59.761719 22.035156 59.691406 21.320312 C 59.621094 20.601562 59.515625 19.894531 59.375 19.1875 C 59.234375 18.484375 59.0625 17.789062 58.851562 17.101562 C 58.644531 16.414062 58.402344 15.738281 58.128906 15.074219 C 57.851562 14.410156 57.546875 13.761719 57.207031 13.128906 C 56.867188 12.492188 56.5 11.878906 56.101562 11.28125 C 55.699219 10.683594 55.273438 10.105469 54.816406 9.550781 C 54.363281 8.996094 53.878906 8.464844 53.371094 7.957031 C 52.863281 7.449219 52.332031 6.964844 51.777344 6.511719 C 51.222656 6.054688 50.644531 5.628906 50.046875 5.226562 C 49.449219 4.828125 48.835938 4.460938 48.199219 4.121094 C 47.566406 3.78125 46.917969 3.476562 46.253906 3.199219 C 45.589844 2.925781 44.914062 2.683594 44.226562 2.476562 C 43.539062 2.265625 42.84375 2.09375 42.140625 1.953125 C 41.433594 1.8125 40.722656 1.707031 40.007812 1.636719 C 39.292969 1.566406 38.578125 1.53125 37.859375 1.53125 Z M 31.308594 12.386719 C 31.714844 12.390625 32.125 12.429688 32.523438 12.507812 C 33.800781 12.753906 35.007812 13.375 35.945312 14.277344 C 36.886719 15.179688 37.558594 16.355469 37.859375 17.625 C 38.15625 16.355469 38.832031 15.179688 39.769531 14.277344 C 40.710938 13.375 41.914062 12.753906 43.195312 12.507812 C 44.472656 12.261719 45.824219 12.390625 47.03125 12.882812 C 48.238281 13.371094 49.300781 14.214844 50.046875 15.28125 C 50.804688 16.359375 51.234375 17.652344 51.347656 18.960938 C 51.457031 20.273438 51.253906 21.605469 50.820312 22.847656 C 50.214844 24.589844 49.164062 26.15625 47.910156 27.511719 C 46.652344 28.863281 45.191406 30.011719 43.675781 31.066406 C 41.820312 32.363281 39.875 33.527344 37.859375 34.554688 C 35.84375 33.527344 33.894531 32.363281 32.039062 31.066406 C 30.527344 30.011719 29.066406 28.863281 27.808594 27.511719 C 26.554688 26.15625 25.503906 24.589844 24.894531 22.847656 C 24.464844 21.605469 24.261719 20.273438 24.371094 18.960938 C 24.484375 17.652344 24.914062 16.359375 25.667969 15.28125 C 26.417969 14.214844 27.476562 13.371094 28.6875 12.882812 C 29.515625 12.546875 30.414062 12.378906 31.308594 12.386719 Z M 31.308594 12.386719 " fill-opacity="1" fill-rule="nonzero"/></g><g clip-path="url(#0b6aa42ea5)"><g clip-path="url(#5366303549)"><path fill="#0b2565" d="M 22.648438 7.5 L 53.699219 7.5 L 53.699219 38.550781 L 22.648438 38.550781 Z M 22.648438 7.5 " fill-opacity="1" fill-rule="nonzero"/></g></g><g clip-path="url(#eafbc1efa1)"><path fill="#ffffff" d="M 37.671875 8.023438 C 31.472656 8.023438 27.960938 11.496094 27.859375 16.523438 L 27.859375 16.773438 L 33.332031 16.773438 L 33.332031 16.523438 C 33.449219 14.304688 34.984375 12.871094 37.308594 12.871094 C 39.609375 12.871094 41.144531 14.203125 41.144531 16.078125 C 41.144531 17.957031 40.355469 18.925781 37.75 20.480469 C 34.964844 22.117188 33.855469 23.933594 34.117188 27.164062 L 34.148438 28.023438 L 39.507812 28.023438 L 39.507812 27.203125 C 39.507812 25.265625 40.253906 24.277344 42.941406 22.722656 C 45.785156 21.046875 47.257812 18.925781 47.257812 15.898438 C 47.257812 11.234375 43.445312 8.023438 37.671875 8.023438 Z M 36.945312 31.773438 C 34.890625 31.773438 33.609375 32.96875 33.609375 34.910156 C 33.609375 36.835938 34.890625 38.023438 36.945312 38.023438 C 38.996094 38.023438 40.261719 36.835938 40.261719 34.910156 C 40.261719 32.96875 38.996094 31.773438 36.945312 31.773438 Z M 36.945312 31.773438 " fill-opacity="1" fill-rule="nonzero"/></g></svg>