<svg xmlns="http://www.w3.org/2000/svg" xmlns:xlink="http://www.w3.org/1999/xlink" width="100" zoomAndPan="magnify" viewBox="0 0 75 74.999997" height="100" preserveAspectRatio="xMidYMid meet" version="1.0"><defs><clipPath id="7a621d93ab"><path d="M 2.613281 18.988281 L 72.339844 18.988281 L 72.339844 64.738281 L 2.613281 64.738281 Z M 2.613281 18.988281 " clip-rule="nonzero"/></clipPath></defs><rect x="-7.5" width="90" fill="#ffffff" y="-7.5" height="89.999996" fill-opacity="1"/><rect x="-7.5" width="90" fill="#ffffff" y="-7.5" height="89.999996" fill-opacity="1"/><g clip-path="url(#7a621d93ab)"><path fill="#000000" d="M 45.140625 37.917969 C 45.140625 42.265625 40.800781 42.417969 40.328125 42.417969 L 35.523438 42.417969 C 32.957031 42.265625 32.722656 40.480469 32.648438 40.011719 L 32.648438 39.855469 C 32.648438 37.761719 34.277344 36.515625 35.753906 35.898438 C 35.90625 36.207031 36.0625 36.597656 36.140625 36.988281 C 36.761719 38.691406 38.007812 39.625 39.164062 40.246094 C 40.328125 40.945312 40.410156 40.476562 40.328125 40.320312 C 40.328125 40.089844 39.628906 39.308594 39.628906 39.308594 C 38.390625 37.761719 38.082031 36.050781 38 35.042969 L 43.898438 35.042969 C 44.132812 35.042969 45.140625 35.199219 45.140625 36.363281 Z M 72.074219 23.867188 L 71.300781 23.867188 L 71.300781 19.992188 L 70.675781 18.980469 L 66.488281 18.980469 L 65.941406 19.910156 L 17.746094 19.910156 C 16.738281 19.910156 15.960938 19.835938 15.960938 19.835938 L 11.230469 19.367188 C 10.449219 19.367188 9.828125 19.992188 9.828125 20.765625 C 9.828125 21 9.910156 21.15625 9.984375 21.386719 L 9.984375 21.464844 C 10.066406 21.539062 10.066406 21.621094 10.140625 21.695312 C 10.140625 21.695312 11.148438 22.628906 11.613281 23.558594 C 11.613281 23.640625 11.769531 24.105469 11.230469 24.722656 L 7.347656 29.457031 C 6.183594 30.929688 5.328125 31.320312 4.863281 31.402344 C 4.863281 31.402344 4.632812 31.476562 4.632812 31.941406 L 4.632812 34.503906 C 4.632812 34.660156 4.707031 34.886719 5.253906 34.886719 L 6.109375 34.886719 C 7.5 34.886719 12.933594 35.433594 9.984375 40.945312 L 6.492188 47.308594 C 5.097656 50.027344 2.613281 56.230469 2.613281 61.355469 L 2.613281 63.21875 C 2.613281 63.449219 2.6875 64.921875 4.476562 64.921875 L 23.179688 64.921875 C 24.421875 64.921875 24.269531 63.992188 24.269531 63.992188 L 24.269531 60.65625 C 24.269531 59.804688 24.421875 58.796875 24.578125 57.789062 C 25.277344 54.757812 26.90625 50.957031 28.300781 48.160156 C 29.699219 45.914062 31.640625 45.214844 33.039062 45.058594 L 40.410156 45.058594 C 40.492188 45.058594 42.195312 45.058594 43.976562 44.203125 C 45.6875 43.429688 47.707031 41.640625 47.707031 37.996094 L 47.707031 36.441406 C 47.707031 35.277344 48.636719 35.125 48.945312 35.125 L 70.753906 35.125 L 71.144531 32.09375 L 71.300781 30.699219 L 72.074219 30.699219 C 72.230469 30.699219 72.382812 29.144531 72.382812 27.289062 C 72.308594 25.421875 72.230469 23.867188 72.074219 23.867188 " fill-opacity="1" fill-rule="nonzero"/></g></svg>