<svg xmlns="http://www.w3.org/2000/svg" xmlns:xlink="http://www.w3.org/1999/xlink" width="50" zoomAndPan="magnify" viewBox="0 0 37.5 37.499999" height="50" preserveAspectRatio="xMidYMid meet" version="1.0"><defs><clipPath id="19a75041da"><path d="M 0.960938 9.199219 L 35.742188 9.199219 L 35.742188 32.144531 L 0.960938 32.144531 Z M 0.960938 9.199219 " clip-rule="nonzero"/></clipPath></defs><g clip-path="url(#19a75041da)"><path fill="#000000" d="M 22.34375 18.714844 C 22.34375 20.902344 20.160156 20.980469 19.921875 20.980469 L 17.507812 20.980469 C 16.21875 20.902344 16.097656 20.003906 16.0625 19.765625 L 16.0625 19.691406 C 16.0625 18.636719 16.882812 18.011719 17.621094 17.699219 C 17.699219 17.855469 17.777344 18.050781 17.816406 18.246094 C 18.128906 19.105469 18.753906 19.574219 19.335938 19.886719 C 19.921875 20.238281 19.964844 20 19.921875 19.921875 C 19.921875 19.808594 19.570312 19.414062 19.570312 19.414062 C 18.949219 18.636719 18.792969 17.777344 18.753906 17.269531 L 21.714844 17.269531 C 21.835938 17.269531 22.34375 17.347656 22.34375 17.933594 Z M 35.882812 11.652344 L 35.492188 11.652344 L 35.492188 9.703125 L 35.179688 9.195312 L 33.074219 9.195312 L 32.800781 9.664062 L 8.570312 9.664062 C 8.0625 9.664062 7.671875 9.625 7.671875 9.625 L 5.292969 9.390625 C 4.902344 9.390625 4.589844 9.703125 4.589844 10.09375 C 4.589844 10.210938 4.628906 10.289062 4.667969 10.402344 L 4.667969 10.445312 C 4.707031 10.480469 4.707031 10.523438 4.746094 10.558594 C 4.746094 10.558594 5.253906 11.03125 5.488281 11.496094 C 5.488281 11.539062 5.566406 11.769531 5.292969 12.082031 L 3.339844 14.460938 C 2.757812 15.203125 2.328125 15.398438 2.09375 15.4375 C 2.09375 15.4375 1.976562 15.476562 1.976562 15.710938 L 1.976562 17 C 1.976562 17.078125 2.015625 17.191406 2.289062 17.191406 L 2.71875 17.191406 C 3.417969 17.191406 6.152344 17.464844 4.667969 20.238281 L 2.910156 23.4375 C 2.210938 24.800781 0.960938 27.921875 0.960938 30.496094 L 0.960938 31.433594 C 0.960938 31.550781 1 32.292969 1.898438 32.292969 L 11.300781 32.292969 C 11.925781 32.292969 11.847656 31.824219 11.847656 31.824219 L 11.847656 30.144531 C 11.847656 29.71875 11.925781 29.210938 12.003906 28.703125 C 12.355469 27.183594 13.175781 25.269531 13.875 23.867188 C 14.578125 22.734375 15.554688 22.382812 16.257812 22.304688 L 19.964844 22.304688 C 20.003906 22.304688 20.859375 22.304688 21.757812 21.875 C 22.617188 21.488281 23.632812 20.585938 23.632812 18.753906 L 23.632812 17.972656 C 23.632812 17.386719 24.097656 17.3125 24.253906 17.3125 L 35.21875 17.3125 L 35.414062 15.789062 L 35.492188 15.085938 L 35.882812 15.085938 C 35.960938 15.085938 36.039062 14.304688 36.039062 13.371094 C 36 12.433594 35.960938 11.652344 35.882812 11.652344 " fill-opacity="1" fill-rule="nonzero"/></g></svg>